<svg width="59" height="58" viewBox="0 0 59 58" fill="none" xmlns="http://www.w3.org/2000/svg">
<path d="M28.5293 0C45.801 0.081032 58.2155 12.6402 58.958 27.404C59.3905 36.0078 56.4769 43.4423 50.2828 49.5409C44.451 55.2828 37.2662 58.1106 29.0644 57.9962C21.107 57.8856 14.1804 54.9844 8.54295 49.3856C3.26938 44.1466 0.39513 37.798 0.0389331 30.4499C-0.36044 22.2164 2.35267 15.0121 8.13587 9.03015C13.9245 3.04287 21.1317 0.140102 28.5293 0ZM28.6342 39.8034C29.8531 39.2089 30.7405 38.3032 31.1977 37.0407C31.8947 35.1187 30.9417 33.1353 28.9942 32.4272C28.0968 32.1008 27.1978 32.2409 26.3073 32.5067C24.7561 32.9709 23.43 33.935 21.8888 34.4204C21.824 34.4333 21.7593 34.4462 21.6945 34.4591C21.5233 34.4174 21.3707 34.5143 21.2065 34.5249C19.6267 34.6272 18.2867 34.1228 17.195 32.9929C17.2844 32.8998 17.3253 32.7854 17.3145 32.662C17.2706 32.1833 17.599 31.8108 17.6884 31.37C17.7015 31.3071 17.7794 31.317 17.8326 31.3283C17.9444 31.3518 18.0562 31.3564 18.1618 31.3155C18.3538 31.2413 18.424 31.3124 18.4386 31.5018C18.4594 31.7736 18.5704 32.0061 18.8719 32.0501C19.188 32.0963 19.353 31.891 19.4625 31.629C19.5126 31.5086 19.5889 31.3973 19.6336 31.2753C19.6699 31.1784 19.7485 31.1239 19.8264 31.1201C20.0245 31.111 20.151 30.9959 20.2813 30.8777C20.3298 30.8338 20.3823 30.7672 20.4509 30.7997C20.5503 30.8475 20.4856 30.9323 20.4671 30.9997C20.4046 31.2314 20.3083 31.4586 20.346 31.7062C20.3884 31.9895 20.6066 32.1546 20.8202 32.0682C21.1671 31.9281 21.6868 31.0231 21.6374 30.5968C21.4408 30.9876 21.2928 31.3685 21.033 31.6843C20.959 31.7736 20.8865 31.913 20.7446 31.8562C20.5951 31.7964 20.6521 31.6487 20.6768 31.5366C20.7562 31.1686 20.9112 30.83 21.1109 30.5105C21.1571 30.4355 21.2018 30.3522 21.1432 30.2651C21.0785 30.1681 20.9914 30.2075 20.9042 30.2355C20.8264 30.2613 20.74 30.3537 20.6645 30.2583C20.5989 30.1757 20.6876 30.097 20.7184 30.019C20.7685 29.8925 20.8958 29.7418 20.6891 29.6592C20.5133 29.5888 20.4278 29.7501 20.3653 29.8736C20.2612 30.0803 20.188 30.2946 20.2466 30.5377C20.2921 30.7263 20.1294 30.8035 19.9991 30.8853C19.9297 30.9292 19.8464 30.933 19.7817 30.8724C19.6521 30.752 19.747 30.6309 19.7894 30.5105C19.8287 30.3976 19.9043 30.2939 19.8842 30.1666C19.8634 30.0349 19.7609 29.9251 19.6691 30.0447C19.5242 30.2325 19.3414 30.228 19.1487 30.2643C18.8758 30.3158 18.7046 30.5021 18.5866 30.7384C18.5473 30.8172 18.5265 30.905 18.4795 30.9785C18.3422 31.1966 18.114 31.1489 17.9074 31.1481C17.8264 31.1481 17.7478 31.1027 17.7624 31.005C17.7894 30.8232 17.8557 30.674 18.0747 30.6339C18.2212 30.6066 18.3222 30.49 18.4186 30.384C18.7794 29.9872 18.9274 29.5252 18.8804 28.9936C18.8657 28.8254 18.8842 28.6467 18.6953 28.5763C18.5011 28.5043 18.3808 28.6566 18.279 28.7815C18.0107 29.1117 17.8426 29.4972 17.7293 29.8978C17.6807 30.0705 17.5026 30.1644 17.518 30.3802C17.5335 30.596 17.5782 30.8694 17.2659 30.9762C17.1973 30.9997 17.212 31.0731 17.2567 31.111C17.4024 31.2337 17.3238 31.3761 17.2937 31.5071C17.1935 31.9425 17.0794 32.3749 17.0315 32.821C16.4425 32.1902 16.0416 31.451 15.7502 30.6498C15.256 29.2904 15.256 27.8811 15.3038 26.4649C15.3084 26.324 15.4256 26.0908 15.2614 26.056C15.0917 26.0196 15.0501 26.2741 14.9869 26.4157C13.9329 28.7845 13.8674 31.2291 14.5829 33.673C15.441 36.6022 17.4756 38.5675 20.2288 39.8473C21.4077 40.3956 22.6706 40.6607 23.9813 40.6698C24.0483 40.6698 24.1146 40.6698 24.1817 40.6698C25.1161 40.7553 26.0329 40.6304 26.9419 40.4335C27.352 40.3449 27.7606 40.2441 28.1299 40.0351C28.3196 40.0033 28.4777 39.9049 28.6342 39.8034ZM33.5022 8.33418C33.2778 8.38189 33.0504 8.42052 32.8291 8.47883C30.7259 9.03469 28.7984 9.98739 26.9102 11.0264C25.1809 11.9784 23.5587 13.0711 22.2357 14.5449C21.0014 15.9194 19.9027 17.3764 19.508 19.2175C19.124 21.0093 19.4956 22.611 20.8726 23.9158C22.292 25.2608 23.9342 26.2726 25.7337 27.0564C27.2263 27.7061 28.8169 28.0666 30.3473 28.602C31.9178 29.1511 33.3735 29.8857 34.5415 31.0868C35.8591 32.4416 36.479 34.0213 36.1629 35.9116C35.9247 37.3346 35.1082 38.3895 34.0165 39.2846C32.5778 40.4645 30.9294 41.271 29.1877 41.9117C29.0752 41.9534 28.914 41.9693 28.9503 42.1276C28.9873 42.2911 29.1453 42.2828 29.2826 42.2586C29.4684 42.2253 29.6527 42.1768 29.8392 42.1473C31.4853 41.8928 33.0805 41.4581 34.6171 40.8265C37.3533 39.7027 39.6108 38.0025 41.1581 35.4776C42.3038 33.6078 42.687 31.6184 42.0101 29.4957C41.5483 28.0462 40.6932 26.8254 39.6647 25.7121C37.8429 23.7394 35.6656 22.202 33.4035 20.7677C32.2154 20.0142 30.9672 19.3545 29.8315 18.52C29.5501 18.3132 29.3604 18.0671 29.2887 17.7256C29.1608 17.119 29.2417 16.5245 29.3951 15.9391C29.638 15.0114 30.0836 14.1617 30.5254 13.3158C31.4136 11.6141 32.3249 9.92377 33.5022 8.33418ZM56.5687 36.7143C56.5533 35.7245 56.2742 35.0111 55.4685 34.5795C54.3621 33.9873 53.1316 34.2682 52.3144 35.2898C51.7639 35.9782 51.4377 36.7575 51.3352 37.6254C51.3128 37.817 51.2843 37.9457 51.0654 37.7617C50.9397 37.6557 50.8718 37.7647 50.8017 37.8548C50.484 38.2638 50.171 38.6758 49.8403 39.0741C49.7223 39.2165 49.7192 39.2907 49.8688 39.4149C51.3591 40.6485 52.844 41.8883 54.3259 43.131C54.4616 43.2446 54.541 43.2378 54.6466 43.1C55.0629 42.5592 55.4808 42.0193 55.911 41.4892C56.0513 41.3172 55.9935 41.2377 55.8362 41.1325C55.487 40.8977 55.1585 40.6326 54.8031 40.4085C54.5549 40.2517 54.541 40.1722 54.7823 39.9708C55.8463 39.0847 56.497 37.976 56.5687 36.7143ZM4.98792 40.0117C6.74192 39.9488 8.47665 39.7398 10.1952 39.3922C10.4018 39.3505 10.4843 39.3096 10.3193 39.1097C9.97545 38.6932 9.64084 38.2691 9.31857 37.8367C9.1929 37.6685 9.07031 37.642 8.86677 37.6829C8.03641 37.851 7.19526 37.9518 6.35334 38.0464C6.27084 38.0555 6.16676 38.107 6.11202 38.0063C6.06884 37.9275 6.14517 37.8654 6.18218 37.7995C6.60854 37.043 7.05186 36.2963 7.5476 35.5814C7.66094 35.4178 7.68021 35.2929 7.57767 35.1096C7.3086 34.631 7.06959 34.1364 6.81516 33.6495C6.77122 33.5647 6.7743 33.4276 6.66096 33.4125C6.52527 33.395 6.49906 33.5435 6.44046 33.6268C5.59777 34.8392 4.81522 36.0888 4.16142 37.4103C4.01878 37.6996 3.85148 37.7867 3.54077 37.7367C3.04656 37.6564 2.54619 37.6095 2.04813 37.5481C1.97258 37.539 1.88622 37.4898 1.82609 37.5542C1.75978 37.6254 1.82763 37.6973 1.86464 37.7617C2.26632 38.4433 2.67186 39.1233 3.07124 39.8064C3.15836 39.9556 3.27092 40.0192 3.44979 40.0154C3.9625 40.0056 4.47521 40.0117 4.98792 40.0117ZM14.5567 44.0246C14.5443 43.3877 14.2606 42.9697 13.9252 42.582C13.1704 41.7103 12.2846 40.9749 11.3779 40.2638C10.9747 39.9473 10.9693 39.9442 10.6092 40.2805C10.142 40.7167 10.0233 40.6349 10.6917 41.0386C11.3887 41.4604 12.0355 41.9405 12.5297 42.5933C12.677 42.7879 12.8135 42.9924 12.7633 43.2544C12.7094 43.5392 12.6084 43.5755 12.3748 43.3976C11.8983 43.0363 11.4272 42.6683 10.9454 42.3146C10.4357 41.9413 9.91763 41.5793 9.28464 41.4263C8.46739 41.2286 7.71414 41.861 7.79663 42.6842C7.83441 43.0591 7.95469 43.412 8.16285 43.7308C8.75112 44.6335 9.59458 45.181 10.6416 45.4431C10.7757 45.4764 10.9955 45.4787 10.7981 45.6846C10.6223 45.8687 10.7079 45.9535 10.8636 46.0686C11.327 46.4101 11.7896 46.754 12.2406 47.1107C12.4048 47.2402 12.4904 47.2205 12.6076 47.0554C13.155 46.2829 13.714 45.518 14.2683 44.7494C14.4464 44.504 14.5713 44.2389 14.5567 44.0246ZM47.0816 47.4469C47.3847 47.4416 47.811 47.2947 48.2112 47.0637C48.9899 46.6131 49.518 45.9535 49.8603 45.1417C49.9343 44.9667 49.986 44.7622 50.1926 45.044C50.2813 45.1644 50.3668 45.1454 50.4671 45.0493C50.9281 44.6047 51.3915 44.1617 51.8579 43.7217C51.9782 43.6081 51.9505 43.5324 51.8379 43.4279C51.1093 42.7508 50.39 42.064 49.6606 41.3869C49.299 41.0514 48.8642 40.9681 48.3869 41.0901C48.094 41.165 47.8226 41.2907 47.5643 41.4452C46.4718 42.0988 45.542 42.9492 44.6129 43.8005C44.4896 43.9133 44.4934 44.0004 44.5806 44.1359C45.0663 44.8986 45.0632 44.9016 45.6515 44.2185C46.1603 43.6278 46.7332 43.1166 47.4525 42.7796C47.6298 42.6963 47.8118 42.6569 48.0014 42.7243C48.2628 42.8175 48.289 42.922 48.094 43.1098C47.5936 43.5937 47.0832 44.0678 46.5898 44.5578C46.2521 44.8933 45.9452 45.256 45.7486 45.6937C45.3516 46.5783 45.9313 47.4469 47.0816 47.4469ZM40.455 50.7556C41.0417 50.7541 41.492 50.673 41.9245 50.5284C43.0147 50.1641 44.0208 49.6719 44.7201 48.7177C45.8319 47.2015 44.5736 45.4468 43.2013 45.3234C41.428 45.1636 39.9461 45.8338 38.755 47.0804C38.0618 47.8059 38.0233 48.704 38.4566 49.5931C38.8791 50.461 39.6694 50.7238 40.455 50.7556ZM22.8525 49.0728C22.6189 49.0728 22.3822 49.0501 22.1517 49.0774C21.6714 49.1342 21.2427 49.297 20.9944 49.7491C20.6444 50.3853 20.8618 51.0797 21.592 51.5477C22.5634 52.1702 23.6166 52.2225 24.7037 51.9059C24.9003 51.8484 25.0444 51.7961 24.9697 52.0907C24.9342 52.2293 25.0028 52.2906 25.1408 52.3081C25.7268 52.3815 26.312 52.4573 26.8971 52.5368C27.0868 52.5625 27.1539 52.4838 27.1701 52.3043C27.258 51.3342 27.3574 50.3648 27.4453 49.3939C27.4908 48.8911 27.2718 48.5033 26.8686 48.2072C26.6797 48.0687 26.4746 47.9588 26.2564 47.8755C25.2518 47.4908 24.1994 47.3068 23.1378 47.169C22.1956 47.0463 22.457 46.9516 22.1463 47.7741C22.0345 48.0694 22.1247 48.1398 22.4146 48.13C23.0738 48.108 23.7299 48.1512 24.3675 48.3337C24.7492 48.4428 25.1562 48.52 25.4022 48.8775C25.477 48.9865 25.5394 49.1198 25.4562 49.2463C25.3806 49.3606 25.2511 49.2978 25.1454 49.2872C24.3806 49.2107 23.6251 49.0554 22.8525 49.0728ZM17.5219 45.4029C17.5466 45.0228 17.5443 45.0258 17.2474 44.8524C16.865 44.6282 16.4834 44.4033 16.1071 44.1693C15.791 43.9739 15.791 43.9716 15.754 44.3435C15.6122 45.7945 15.5566 47.2485 15.6145 48.7048C15.6222 48.907 15.5636 49.0297 15.377 49.1221C14.9106 49.3538 14.4518 49.6014 13.99 49.8423C13.9137 49.8817 13.7988 49.887 13.788 49.9907C13.7764 50.1051 13.9013 50.1134 13.9715 50.1505C14.579 50.4708 15.1943 50.7775 15.7972 51.1062C15.9599 51.1948 16.0724 51.1835 16.2205 51.0888C18.1032 49.887 19.8626 48.5336 21.474 46.9955C21.6598 46.8183 21.5958 46.7706 21.3969 46.7017C20.9667 46.5525 20.5295 46.4117 20.1217 46.2163C19.8549 46.0883 19.7061 46.1587 19.5195 46.3374C18.9459 46.888 18.3399 47.4053 17.7146 47.899C17.6483 47.9513 17.5951 48.0573 17.4972 48.0179C17.3731 47.9687 17.4348 47.8452 17.4355 47.7551C17.4379 46.9577 17.451 46.1587 17.5219 45.4029ZM35.6602 49.3C35.304 49.3 34.9478 49.3038 34.5916 49.2985C34.412 49.2962 34.2524 49.2258 34.2007 49.0463C34.1475 48.8616 34.3048 48.7684 34.4336 48.6889C34.5446 48.62 34.6726 48.5715 34.7998 48.5344C35.5006 48.3277 36.2076 48.3489 36.9131 48.5102C37.1652 48.5677 37.2546 48.5049 37.1721 48.2496C37.1081 48.0512 37.0441 47.8521 37.0025 47.6491C36.9609 47.4461 36.8444 47.3946 36.6486 47.3924C35.9879 47.3848 35.3333 47.4401 34.6888 47.5726C33.9216 47.7294 33.1653 47.9301 32.5685 48.4708C31.8207 49.1501 32.0265 50.099 32.9872 50.4345C33.4999 50.6132 34.035 50.6253 34.5716 50.6231C34.883 50.6215 35.1953 50.6291 35.5068 50.6374C35.6671 50.642 35.789 50.7185 35.8252 50.8768C35.8607 51.0282 35.755 51.1214 35.6417 51.1979C35.4937 51.2978 35.3264 51.3607 35.1537 51.4023C34.2948 51.6113 33.4536 51.5561 32.631 51.235C32.2956 51.1039 32.2478 51.1388 32.2817 51.5038C32.2979 51.678 32.3349 51.8537 32.3272 52.0263C32.3149 52.2959 32.4452 52.3762 32.6988 52.4126C33.695 52.5572 34.6795 52.5042 35.6517 52.271C36.4065 52.09 37.1212 51.8098 37.6617 51.2304C38.3055 50.5405 38.031 49.6378 37.1228 49.3871C36.6371 49.2531 36.1482 49.3008 35.6602 49.3ZM26.9411 30.9671C27.0243 31.0928 26.9912 31.214 26.9912 31.3306C26.9912 31.3912 27.0043 31.4465 27.0714 31.451C27.14 31.4548 27.1624 31.398 27.1639 31.3397C27.1708 31.0557 27.1762 30.771 27.1824 30.487C27.1839 30.415 27.1616 30.3491 27.0799 30.3438C26.9958 30.3385 26.9819 30.409 26.9634 30.4756C26.8648 30.8293 26.6512 31.1261 26.4561 31.4298C26.3628 31.576 26.2827 31.8395 26.0691 31.7729C25.8486 31.7032 25.9866 31.4472 25.9635 31.2746C25.9157 30.9103 26.029 30.6483 26.369 30.4279C26.7306 30.1931 26.8979 29.791 26.9835 29.3707C27.0375 29.1034 27.1492 28.7709 26.8308 28.6422C26.4885 28.5036 26.3235 28.8338 26.1801 29.0731C25.8941 29.5509 25.7676 30.0848 25.6497 30.6218C25.5548 31.0512 25.2757 31.3859 25.0113 31.7229C24.938 31.8161 24.8216 31.8562 24.7507 31.7009C24.5988 31.37 24.8108 30.6808 25.1239 30.4847C25.4901 30.2545 25.8933 29.3003 25.8008 28.8822C25.7407 28.6104 25.541 28.524 25.3043 28.6785C25.083 28.8232 24.9581 29.0466 24.8486 29.276C24.6389 29.7153 24.5125 30.181 24.4315 30.6581C24.3637 31.0557 24.1123 31.3488 23.8648 31.6457C23.8224 31.6964 23.7669 31.754 23.696 31.7153C23.6227 31.676 23.6544 31.601 23.6713 31.5381C23.7276 31.3261 23.7839 31.114 23.8425 30.9035C23.9828 30.3984 23.9388 30.3264 23.4331 30.2462C23.137 30.1992 22.8525 30.4075 22.6922 30.7884C22.5017 31.2397 22.531 31.7471 22.7554 31.9016C22.9003 32.0016 23.7099 31.966 23.8448 31.8456C23.935 31.7653 24.0082 31.6676 24.0938 31.5813C24.1586 31.5154 24.1755 31.3715 24.302 31.4048C24.4084 31.4329 24.3621 31.554 24.3806 31.6351C24.4701 32.0311 24.7453 32.1213 25.0599 31.8577C25.1809 31.757 25.2657 31.6298 25.349 31.4995C25.3875 31.4389 25.4084 31.3374 25.5032 31.3496C25.6065 31.3632 25.5872 31.4654 25.5911 31.5366C25.6042 31.7479 25.6813 31.9531 25.8817 32.0152C26.0915 32.0796 26.2557 31.9024 26.3798 31.7547C26.5271 31.5783 26.6396 31.3745 26.7645 31.1814C26.8077 31.1095 26.82 31.0141 26.9411 30.9671Z" fill="#002F0B"/>
<path d="M33.5017 8.33423C32.3252 9.92382 31.4131 11.6141 30.5242 13.3158C30.0824 14.1617 29.6368 15.0114 29.3939 15.9391C29.2405 16.5245 29.1595 17.119 29.2875 17.7256C29.36 18.0672 29.5489 18.3133 29.8303 18.52C30.966 19.3546 32.2142 20.015 33.4023 20.7677C35.6644 22.2021 37.8416 23.7394 39.6635 25.7122C40.692 26.8262 41.547 28.0462 42.0088 29.4957C42.6858 31.6184 42.3026 33.6071 41.1569 35.4777C39.6095 38.0026 37.3528 39.7027 34.6158 40.8266C33.0792 41.4574 31.4841 41.8928 29.838 42.1473C29.6514 42.1761 29.4679 42.2246 29.2813 42.2586C29.1441 42.2829 28.9861 42.2912 28.949 42.1276C28.9136 41.9686 29.0747 41.9534 29.1865 41.9118C30.9282 41.2711 32.5758 40.4646 34.0152 39.2847C35.1069 38.3895 35.9234 37.3346 36.1617 35.9116C36.4785 34.0214 35.8579 32.4416 34.5403 31.0868C33.3722 29.8857 31.9166 29.1511 30.3461 28.6021C28.8157 28.0667 27.2251 27.7069 25.7325 27.0564C23.933 26.2726 22.2908 25.2616 20.8714 23.9159C19.4944 22.611 19.1228 21.0093 19.5067 19.2175C19.9015 17.3773 21.0001 15.9202 22.2345 14.5449C23.5575 13.0712 25.1797 11.9784 26.909 11.0265C28.7964 9.98743 30.7239 9.03474 32.8279 8.47887C33.0499 8.42056 33.2774 8.38194 33.5017 8.33423Z" fill="white"/>
<path d="M56.5683 36.7144C56.4974 37.9761 55.8459 39.0848 54.7835 39.9716C54.5429 40.173 54.5568 40.2525 54.8043 40.4093C55.1597 40.6342 55.4882 40.8993 55.8374 41.1333C55.9947 41.2386 56.0518 41.3181 55.9122 41.49C55.4812 42.0193 55.0634 42.5593 54.6478 43.1008C54.5422 43.2386 54.4628 43.2454 54.3271 43.1318C52.8452 41.8891 51.3603 40.6486 49.87 39.4157C49.7196 39.2915 49.7235 39.2173 49.8414 39.0749C50.1714 38.6766 50.4852 38.2646 50.8029 37.8557C50.873 37.7655 50.9409 37.6565 51.0665 37.7625C51.2855 37.9465 51.3133 37.817 51.3364 37.6262C51.4389 36.7583 51.7651 35.9791 52.3156 35.2907C53.1328 34.2691 54.3625 33.9881 55.4697 34.5803C56.2738 35.0112 56.5529 35.7246 56.5683 36.7144ZM54.9331 37.9056C54.95 37.2688 54.6054 36.8371 53.9554 36.5811C53.4481 36.3812 53.0403 36.4721 52.6633 36.8856C52.3325 37.2491 52.1159 37.6747 51.9755 38.1434C51.9308 38.2919 51.9432 38.3873 52.0742 38.4789C52.617 38.8591 53.1575 39.2438 53.6956 39.63C53.7881 39.6967 53.8729 39.7247 53.9578 39.63C54.4342 39.1014 54.8644 38.5486 54.9331 37.9056Z" fill="white"/>
<path d="M4.98774 40.0116C4.47503 40.0116 3.96233 40.0056 3.44962 40.0147C3.27075 40.0177 3.15818 39.9548 3.07106 39.8056C2.67169 39.1226 2.26615 38.4425 1.86446 37.7609C1.82668 37.6973 1.75961 37.6246 1.82591 37.5534C1.88605 37.4883 1.9724 37.5375 2.04796 37.5473C2.54525 37.6094 3.04562 37.6564 3.54059 37.7359C3.8513 37.7867 4.01861 37.6988 4.16124 37.4095C4.81427 36.088 5.59682 34.8385 6.44029 33.626C6.49811 33.5427 6.52433 33.3943 6.66079 33.4117C6.7749 33.4261 6.77104 33.5639 6.81499 33.6487C7.06864 34.1357 7.30765 34.6302 7.5775 35.1088C7.68081 35.2921 7.66076 35.417 7.54743 35.5806C7.05168 36.2955 6.60836 37.0422 6.18201 37.7988C6.145 37.8647 6.06944 37.9268 6.11185 38.0055C6.16659 38.1062 6.27144 38.0547 6.35317 38.0457C7.19509 37.9518 8.03701 37.851 8.86659 37.6821C9.07013 37.6413 9.19272 37.667 9.31839 37.8359C9.64067 38.2683 9.97528 38.6924 10.3191 39.1089C10.4841 39.3088 10.4024 39.3497 10.195 39.3914C8.47724 39.7398 6.74174 39.948 4.98774 40.0116Z" fill="white"/>
<path d="M14.5563 44.0246C14.5709 44.2389 14.4453 44.504 14.2679 44.7501C13.7136 45.518 13.1546 46.2829 12.6072 47.0561C12.49 47.2212 12.4044 47.2409 12.2402 47.1114C11.7892 46.7547 11.3266 46.4109 10.8632 46.0693C10.7075 45.9542 10.6219 45.8687 10.7977 45.6854C10.9951 45.4794 10.7753 45.4771 10.6412 45.4438C9.59419 45.1818 8.75073 44.6342 8.16246 43.7315C7.9543 43.4127 7.83402 43.0598 7.79624 42.6849C7.71375 41.8617 8.467 41.2294 9.28425 41.427C9.91724 41.58 10.4353 41.9428 10.945 42.3154C11.4276 42.6683 11.8979 43.0371 12.3744 43.3983C12.6088 43.5755 12.709 43.5399 12.763 43.2552C12.8131 42.9939 12.6766 42.7894 12.5293 42.5941C12.0351 41.9413 11.3883 41.4611 10.6913 41.0393C10.0236 40.6349 10.1416 40.7174 10.6088 40.2812C10.9689 39.945 10.9743 39.948 11.3775 40.2646C12.2842 40.9764 13.17 41.711 13.9248 42.5827C14.261 42.9697 14.5447 43.3885 14.5563 44.0246ZM10.1609 43.1022C9.75379 43.1075 9.49473 43.5225 9.68902 43.8701C10.009 44.4419 10.5086 44.8024 11.1447 44.9834C11.2719 45.0197 11.3829 45.0053 11.4731 44.8955C11.6196 44.7175 11.7707 44.5434 11.9218 44.3692C12.0166 44.2594 11.9897 44.1852 11.874 44.1041C11.4492 43.8088 11.0529 43.4725 10.588 43.2332C10.4477 43.1613 10.3043 43.1105 10.1609 43.1022Z" fill="white"/>
<path d="M47.0813 47.4468C45.9309 47.4461 45.3512 46.5782 45.7474 45.6944C45.9433 45.2567 46.2509 44.894 46.5886 44.5585C47.082 44.0685 47.5924 43.5937 48.0928 43.1105C48.2879 42.9227 48.2616 42.8182 48.0003 42.725C47.8098 42.6576 47.6287 42.697 47.4513 42.7803C46.7328 43.1173 46.1592 43.6285 45.6503 44.2192C45.062 44.9023 45.0651 44.8993 44.5794 44.1366C44.493 44.0003 44.4884 43.914 44.6118 43.8012C45.5408 42.9499 46.4706 42.0995 47.5631 41.4459C47.8214 41.2914 48.0928 41.1657 48.3858 41.0908C48.863 40.9688 49.2971 41.0521 49.6594 41.3876C50.3888 42.0639 51.1074 42.7515 51.8367 43.4286C51.9493 43.5331 51.9778 43.6088 51.8568 43.7224C51.3903 44.1624 50.927 44.6047 50.4659 45.05C50.3664 45.1461 50.2801 45.1651 50.1914 45.0447C49.9848 44.7629 49.9332 44.9674 49.8591 45.1424C49.5168 45.9542 48.9887 46.6138 48.21 47.0644C47.8106 47.2954 47.3843 47.4415 47.0813 47.4468ZM48.0311 45.8527C48.5068 45.7293 48.89 45.4263 49.2023 45.0295C49.6217 44.4964 49.6163 44.4153 49.1768 43.9276C49.1182 43.8625 49.0565 43.7989 49.0018 43.73C48.9093 43.6126 48.8283 43.5838 48.7096 43.7118C48.4104 44.0337 48.0967 44.3426 47.7944 44.663C47.6502 44.816 47.5284 44.9863 47.4768 45.1939C47.4012 45.5006 47.6873 45.8603 48.0311 45.8527Z" fill="white"/>
<path d="M40.4549 50.7555C39.67 50.7237 38.879 50.4609 38.4572 49.5931C38.0247 48.704 38.0625 47.8058 38.7556 47.0803C39.9468 45.8338 41.4286 45.1636 43.2019 45.3234C44.5743 45.4476 45.8325 47.2015 44.7207 48.7176C44.0215 49.6711 43.0153 50.1641 41.9251 50.5283C41.4911 50.673 41.0408 50.754 40.4549 50.7555ZM40.2189 47.8066C40.2128 48.6843 40.8388 49.4976 41.5204 49.4984C42.306 49.4992 43.1047 48.8668 43.1109 48.2405C43.1179 47.4468 42.3885 46.5691 41.7162 46.5623C40.9198 46.554 40.2236 47.1333 40.2189 47.8066Z" fill="white"/>
<path d="M22.852 49.0728C23.6246 49.0554 24.3801 49.2114 25.1442 49.2864C25.249 49.297 25.3793 49.3598 25.4549 49.2455C25.5382 49.1198 25.4757 48.9857 25.4009 48.8767C25.155 48.5192 24.7479 48.442 24.3662 48.3329C23.7294 48.1504 23.0733 48.1073 22.4133 48.1292C22.1227 48.1391 22.0332 48.0686 22.145 47.7733C22.4557 46.9516 22.1944 47.0455 23.1365 47.1682C24.1982 47.306 25.2506 47.49 26.2552 47.8748C26.4741 47.9588 26.6792 48.0679 26.8673 48.2065C27.2713 48.5033 27.4895 48.8911 27.444 49.3932C27.3561 50.3633 27.2567 51.3326 27.1688 52.3035C27.1526 52.4822 27.0855 52.5617 26.8959 52.536C26.3107 52.4565 25.7255 52.3807 25.1396 52.3073C25.0023 52.2899 24.9337 52.2285 24.9684 52.0899C25.0432 51.7961 24.899 51.8484 24.7024 51.9052C23.6153 52.221 22.5621 52.1695 21.5907 51.5469C20.8606 51.0789 20.6431 50.3845 20.9932 49.7483C21.2422 49.2955 21.6701 49.1326 22.1504 49.0766C22.3817 49.0501 22.6184 49.0728 22.852 49.0728ZM24.3508 51.3554C24.4942 51.3326 24.6947 51.3099 24.889 51.2652C25.0054 51.2387 25.1303 51.1948 25.1573 51.0502C25.2005 50.8131 25.2436 50.5761 25.283 50.3383C25.2991 50.2398 25.2683 50.1505 25.1581 50.1437C24.5605 50.1065 23.9653 49.9475 23.3632 50.0876C23.1211 50.1437 22.9854 50.308 22.9438 50.5458C22.8991 50.7987 23.0247 50.9646 23.2367 51.0827C23.5644 51.2652 23.9237 51.3319 24.3508 51.3554Z" fill="white"/>
<path d="M17.5218 45.4029C17.4501 46.1587 17.4377 46.9576 17.4354 47.7566C17.4354 47.846 17.373 47.9702 17.4971 48.0194C17.595 48.058 17.6482 47.9527 17.7145 47.9005C18.3398 47.4067 18.9458 46.8895 19.5194 46.3389C19.706 46.1602 19.8548 46.0898 20.1215 46.2177C20.5302 46.4139 20.9673 46.554 21.3968 46.7032C21.5957 46.7721 21.6597 46.8198 21.4739 46.997C19.8625 48.5351 18.1031 49.8884 16.2203 51.0903C16.0723 51.1849 15.9597 51.1963 15.7971 51.1077C15.1941 50.779 14.5789 50.4723 13.9714 50.152C13.9004 50.1149 13.7763 50.1065 13.7879 49.9922C13.7987 49.8884 13.9135 49.8831 13.9899 49.8437C14.4517 49.6029 14.9104 49.3553 15.3769 49.1235C15.5635 49.0312 15.622 48.9077 15.6143 48.7063C15.5565 47.25 15.612 45.7959 15.7539 44.3449C15.7901 43.9731 15.7909 43.9754 16.107 44.1707C16.4832 44.404 16.8649 44.6297 17.2473 44.8538C17.5441 45.0257 17.5464 45.0227 17.5218 45.4029Z" fill="white"/>
<path d="M35.6599 49.3001C36.1487 49.3008 36.6375 49.2539 37.121 49.3872C38.0292 49.6378 38.3037 50.5413 37.6599 51.2304C37.1194 51.8098 36.4047 52.09 35.6499 52.271C34.6777 52.5042 33.6924 52.5565 32.697 52.4126C32.4441 52.3763 32.3138 52.2952 32.3254 52.0264C32.3331 51.853 32.2961 51.678 32.2799 51.5038C32.246 51.1388 32.293 51.104 32.6292 51.235C33.4518 51.5568 34.293 51.6114 35.1518 51.4024C35.3253 51.3599 35.4919 51.2978 35.6399 51.1979C35.754 51.1214 35.8588 51.0282 35.8234 50.8768C35.7871 50.7185 35.6653 50.642 35.505 50.6375C35.1935 50.6291 34.8812 50.6216 34.5698 50.6231C34.0331 50.6254 33.4988 50.614 32.9854 50.4345C32.0247 50.099 31.8181 49.1501 32.5667 48.4708C33.1627 47.9293 33.9198 47.7294 34.6869 47.5726C35.3323 47.4401 35.9868 47.3848 36.6468 47.3924C36.8426 47.3947 36.9598 47.4454 37.0007 47.6491C37.0423 47.8521 37.1063 48.052 37.1703 48.2497C37.2528 48.5049 37.1626 48.5677 36.9112 48.5102C36.2058 48.3489 35.4996 48.3277 34.798 48.5344C34.6715 48.5715 34.5428 48.62 34.4317 48.6889C34.303 48.7684 34.1457 48.8616 34.1989 49.0464C34.2506 49.2259 34.4094 49.2955 34.5898 49.2985C34.9468 49.3031 35.3037 49.3001 35.6599 49.3001Z" fill="white"/>
<path d="M26.9406 30.9671C26.8196 31.014 26.8072 31.1087 26.761 31.1799C26.6353 31.373 26.5228 31.5775 26.3763 31.7532C26.2529 31.9016 26.0879 32.0788 25.8782 32.0137C25.6777 31.9523 25.6006 31.7463 25.5875 31.5351C25.5829 31.4639 25.6022 31.3616 25.4996 31.348C25.4056 31.3351 25.3848 31.4374 25.3455 31.4979C25.2614 31.6282 25.1774 31.7554 25.0563 31.8562C24.7418 32.1189 24.4665 32.0288 24.3771 31.6335C24.3586 31.5532 24.4056 31.4313 24.2984 31.4033C24.172 31.37 24.155 31.5138 24.0903 31.5797C24.0055 31.6661 23.9315 31.7638 23.8413 31.844C23.7071 31.9644 22.8976 32 22.7518 31.9001C22.5267 31.7456 22.4982 31.2382 22.6886 30.7868C22.849 30.4059 23.1343 30.1976 23.4295 30.2446C23.9353 30.3249 23.9793 30.3968 23.8389 30.9019C23.7803 31.1132 23.7241 31.3253 23.6678 31.5366C23.6508 31.5994 23.62 31.6744 23.6924 31.7138C23.7634 31.7524 23.8197 31.6941 23.8613 31.6441C24.1088 31.3472 24.3601 31.0542 24.428 30.6566C24.5089 30.1795 24.6354 29.7145 24.8451 29.2745C24.9546 29.045 25.0795 28.8216 25.3007 28.677C25.5374 28.5225 25.7371 28.6088 25.7973 28.8807C25.8898 29.2987 25.4865 30.2529 25.1203 30.4832C24.8073 30.6793 24.5953 31.3684 24.7472 31.6994C24.8189 31.8546 24.9345 31.8145 25.0078 31.7214C25.2722 31.3843 25.5521 31.0496 25.6461 30.6202C25.7649 30.0833 25.8905 29.5494 26.1766 29.0715C26.32 28.8322 26.485 28.502 26.8273 28.6406C27.1465 28.7694 27.0347 29.1026 26.98 29.3692C26.8951 29.7887 26.7271 30.1916 26.3655 30.4264C26.0262 30.6467 25.9121 30.9088 25.9599 31.273C25.9823 31.4457 25.8451 31.7024 26.0656 31.7713C26.2791 31.8387 26.3593 31.5744 26.4526 31.4283C26.6469 31.1246 26.8612 30.8277 26.9599 30.4741C26.9784 30.4074 26.9923 30.337 27.0763 30.3423C27.158 30.3468 27.1804 30.4135 27.1789 30.4854C27.1735 30.7694 27.1681 31.0542 27.1604 31.3382C27.1588 31.3972 27.1365 31.454 27.0678 31.4495C27.0008 31.4457 26.9877 31.3897 26.9877 31.3291C26.9907 31.214 27.0239 31.0928 26.9406 30.9671ZM23.5259 30.7134C23.5336 30.6081 23.5305 30.5172 23.4311 30.4771C23.3586 30.4483 23.3023 30.4983 23.2638 30.5528C23.0494 30.8573 22.9346 31.1928 22.9515 31.5653C22.9546 31.6418 22.9785 31.7244 23.0641 31.7486C23.1605 31.7766 23.2044 31.6933 23.2422 31.632C23.4187 31.3465 23.4203 31.0072 23.5259 30.7134ZM24.9947 30.3968C25.0309 30.3718 25.0833 30.3476 25.1188 30.309C25.4403 29.9599 25.5906 29.5229 25.751 29.0927C25.7703 29.0397 25.7664 28.9776 25.7063 28.9519C25.6161 28.9125 25.5598 28.9708 25.5143 29.0374C25.2568 29.4116 25.071 29.8198 24.9214 30.2454C24.8975 30.3097 24.8798 30.3749 24.9947 30.3968ZM26.2359 30.3892C26.2629 30.3688 26.3015 30.3468 26.3308 30.3165C26.6662 29.9644 26.8288 29.5236 26.9792 29.0776C26.9961 29.0268 26.9946 28.964 26.9244 28.9443C26.8512 28.9239 26.7934 28.9602 26.7525 29.0162C26.4803 29.3934 26.2922 29.8107 26.1481 30.2484C26.1272 30.3158 26.1218 30.3809 26.2359 30.3892Z" fill="#1674B6"/>
<path d="M17.1955 32.9921C17.113 32.9619 17.0652 32.8982 17.0312 32.8225C17.0791 32.3772 17.1924 31.944 17.2934 31.5086C17.3235 31.3768 17.4029 31.2352 17.2564 31.1125C17.2117 31.0746 17.1962 31.0012 17.2656 30.9777C17.5779 30.8709 17.5332 30.5968 17.5177 30.3817C17.5023 30.1666 17.6797 30.0727 17.729 29.8993C17.8423 29.4987 18.0112 29.1132 18.2787 28.783C18.3805 28.6573 18.5008 28.5058 18.695 28.5778C18.8839 28.6475 18.8654 28.8262 18.8801 28.9951C18.9271 29.5267 18.7791 29.9887 18.4183 30.3855C18.3219 30.4923 18.2209 30.6089 18.0744 30.6354C17.8554 30.6755 17.7891 30.8247 17.7621 31.0065C17.7475 31.1042 17.8261 31.1496 17.9071 31.1496C18.1137 31.1504 18.3419 31.1973 18.4792 30.98C18.5254 30.9065 18.547 30.8179 18.5863 30.7399C18.7043 30.5029 18.8755 30.3166 19.1484 30.2658C19.3411 30.2295 19.5239 30.2348 19.6688 30.0462C19.7606 29.9266 19.8631 30.0364 19.8839 30.1681C19.904 30.2954 19.8284 30.3999 19.7891 30.512C19.7467 30.6316 19.6518 30.7528 19.7814 30.874C19.8461 30.9345 19.9294 30.93 19.9988 30.8868C20.1283 30.805 20.291 30.727 20.2463 30.5392C20.1877 30.2961 20.2609 30.0818 20.365 29.8751C20.4275 29.7516 20.513 29.5903 20.6888 29.6607C20.8955 29.7433 20.7682 29.894 20.7181 30.0205C20.6873 30.0985 20.5986 30.1772 20.6642 30.2598C20.7389 30.3552 20.8253 30.262 20.9039 30.2371C20.9911 30.2083 21.0782 30.1697 21.1429 30.2666C21.2015 30.3537 21.1568 30.4377 21.1106 30.512C20.9109 30.8323 20.7567 31.1708 20.6765 31.5381C20.6526 31.6502 20.5955 31.7979 20.7443 31.8577C20.8862 31.9145 20.9587 31.7759 21.0327 31.6858C21.2933 31.3692 21.4413 30.9891 21.6371 30.5983C21.6865 31.0247 21.1661 31.9296 20.8199 32.0697C20.6063 32.1561 20.3881 31.991 20.3457 31.7078C20.3087 31.4601 20.4043 31.2329 20.4668 31.0012C20.4853 30.933 20.5493 30.849 20.4506 30.8013C20.382 30.7687 20.3295 30.8353 20.281 30.8793C20.1499 30.9974 20.0235 31.1125 19.8261 31.1216C19.7482 31.1254 19.6688 31.1791 19.6333 31.2768C19.5886 31.3988 19.5123 31.5093 19.4622 31.6305C19.3527 31.8933 19.1885 32.0978 18.8716 32.0516C18.5709 32.0076 18.4591 31.7752 18.4383 31.5033C18.4237 31.3139 18.3535 31.242 18.1615 31.317C18.0559 31.3579 17.9441 31.3533 17.8323 31.3299C17.7791 31.3185 17.7012 31.3086 17.6881 31.3715C17.5987 31.8123 17.2703 32.1849 17.3142 32.6635C17.3258 32.7839 17.2849 32.899 17.1955 32.9921ZM18.8778 31.426C18.8855 31.5586 18.857 31.7047 18.9919 31.7592C19.1499 31.8236 19.2324 31.6805 19.3134 31.5828C19.5462 31.3011 19.6179 30.9875 19.4838 30.6377C19.4614 30.5794 19.4822 30.4998 19.4044 30.4718C19.3142 30.44 19.2548 30.5021 19.207 30.5604C18.995 30.8164 18.9194 31.1224 18.8778 31.426ZM18.8307 29.1405C18.8292 29.0276 18.823 28.9375 18.7205 28.9004C18.6257 28.8663 18.5802 28.9254 18.5462 29.0026C18.3689 29.4123 18.19 29.8213 18.0143 30.2318C17.9857 30.2976 17.9241 30.3802 18.0089 30.4377C18.0813 30.4862 18.1569 30.4393 18.2163 30.3832C18.5848 30.0386 18.7629 29.6039 18.8307 29.1405Z" fill="#1674B6"/>
<path d="M23.9816 40.6713C22.6709 40.6622 21.408 40.3971 20.2292 39.8488C17.476 38.569 15.4413 36.6045 14.5832 33.6745C13.867 31.2306 13.9325 28.7861 14.9872 26.4172C15.0504 26.2756 15.0921 26.0211 15.2617 26.0575C15.4259 26.0923 15.3087 26.3256 15.3041 26.4664C15.2563 27.8826 15.2563 29.2919 15.7505 30.6513C16.0412 31.4518 16.4421 32.1909 17.0319 32.8225C17.0658 32.8982 17.1136 32.9619 17.1961 32.9921C18.2878 34.1221 19.6278 34.6264 21.2076 34.5242C21.3718 34.5136 21.5237 34.4174 21.6956 34.4583C21.7264 34.5636 21.7588 34.6681 21.7873 34.7733C21.8914 35.1558 21.9508 35.5443 21.9654 35.9396C21.9708 36.1001 21.8953 36.2274 21.7218 36.2372C21.5337 36.2478 21.5722 36.0888 21.5576 35.9759C21.5483 35.8995 21.5661 35.8139 21.4342 35.6973C21.5391 36.1622 21.3679 36.4599 21.021 36.6287C20.1922 37.0316 19.5977 38.4819 20.0241 39.4649C20.0634 39.5557 20.1027 39.683 20.2199 39.6527C20.4612 39.5913 20.6525 39.4278 20.8267 39.2619C20.9662 39.1294 20.8221 38.9953 20.7681 38.8742C20.2739 37.77 21.1999 36.3713 22.105 36.2872C22.2507 36.2736 22.344 36.2221 22.3178 36.032C22.2415 35.4761 22.1459 34.9278 21.8899 34.4197C23.4311 33.935 24.7572 32.9702 26.3084 32.506C27.1989 32.2401 28.0979 32.0993 28.9953 32.4264C30.9429 33.1353 31.8958 35.1179 31.1988 37.04C30.7416 38.3024 29.8542 39.2081 28.6353 39.8026C28.6962 39.5292 28.9591 39.3997 29.0994 39.1786C28.6569 39.3392 28.3338 39.6216 28.1311 40.0359C27.7617 40.2449 27.3531 40.3456 26.943 40.4342C26.034 40.6311 25.1173 40.7561 24.1828 40.6705C24.5274 40.3365 24.785 39.9503 24.9276 39.4929C24.9816 39.3195 25.0772 39.1521 24.7896 39.0794C24.684 39.0529 24.6878 38.9249 24.6971 38.8227C24.7094 38.6864 24.7187 38.5485 24.593 38.3759C24.512 38.8363 24.3131 39.1839 24.0294 39.477C23.5868 39.9344 23.5799 39.9283 23.8891 40.4971C23.9191 40.5561 23.95 40.6137 23.9816 40.6713ZM25.3046 36.1683C25.6184 35.6942 25.586 35.1558 25.6223 34.6302C25.6276 34.5514 25.667 34.4318 25.5598 34.4C25.465 34.372 25.3832 34.4719 25.3632 34.5439C25.2375 34.9892 24.886 35.3875 24.9816 35.8722C25.061 36.2743 24.9214 36.5114 24.5884 36.6992C24.502 36.7476 24.3609 36.8188 24.465 36.9506C24.576 37.0907 24.6978 36.9922 24.7688 36.8991C24.8991 36.7279 25.0563 36.6128 25.2622 36.5401C25.4272 36.4811 25.5783 36.3826 25.7348 36.3008C25.7919 36.2713 25.8767 36.2471 25.8412 36.1653C25.8104 36.0941 25.7294 36.1168 25.6639 36.1251C25.5583 36.1372 25.4688 36.2334 25.3046 36.1683ZM28.5605 36.8726C28.5451 37.0809 28.8974 37.1513 28.7355 37.38C28.6908 37.4428 28.633 37.5155 28.7324 37.5708C28.8049 37.611 28.8812 37.5731 28.9506 37.5322C29.0362 37.4815 29.0501 37.4073 28.9938 37.3406C28.862 37.1854 28.7864 36.9801 28.5605 36.8726ZM29.4988 37.1952C29.5265 37.3232 29.2883 37.433 29.4664 37.5519C29.5134 37.5829 29.6784 37.5421 29.7 37.4951C29.7648 37.3489 29.6337 37.2725 29.4988 37.1952Z" fill="#BDE0EA"/>
<path d="M21.8889 34.4204C22.1456 34.9286 22.2405 35.4769 22.3168 36.0327C22.343 36.2228 22.249 36.2743 22.104 36.2879C21.1989 36.372 20.2729 37.7707 20.7671 38.8749C20.8211 38.9961 20.9653 39.1309 20.8257 39.2626C20.6515 39.4285 20.4603 39.5928 20.2189 39.6534C20.1017 39.6829 20.0624 39.5565 20.0231 39.4656C19.5967 38.4826 20.1912 37.0331 21.02 36.6295C21.3669 36.4606 21.5373 36.163 21.4332 35.698C21.5651 35.8139 21.5474 35.9002 21.5566 35.9767C21.5705 36.0895 21.5319 36.2486 21.7208 36.238C21.8943 36.2281 21.9706 36.1009 21.9645 35.9403C21.9506 35.5458 21.8904 35.1565 21.7864 34.7741C21.7578 34.6688 21.7247 34.5635 21.6946 34.459C21.7594 34.4454 21.8241 34.4325 21.8889 34.4204Z" fill="#BDE0EA"/>
<path d="M23.9814 40.6712C23.9498 40.6137 23.9181 40.5561 23.8873 40.4985C23.5781 39.9298 23.5851 39.9359 24.0276 39.4784C24.3113 39.1854 24.5103 38.8378 24.5912 38.3773C24.7177 38.55 24.7084 38.6871 24.6953 38.8241C24.686 38.9264 24.6822 39.0536 24.7878 39.0809C25.0754 39.1536 24.9798 39.3209 24.9258 39.4943C24.7832 39.9518 24.5257 40.338 24.1811 40.672C24.1147 40.6712 24.0484 40.6712 23.9814 40.6712Z" fill="#BDE0EA"/>
<path d="M28.1294 40.0359C28.3322 39.6224 28.6552 39.3391 29.0978 39.1786C28.9574 39.3997 28.6945 39.5292 28.6336 39.8026C28.4771 39.9048 28.3191 40.0033 28.1294 40.0359Z" fill="#BDE0EA"/>
<path d="M25.3047 36.1683C25.4689 36.2342 25.5583 36.1373 25.6639 36.1237C25.7295 36.1153 25.8104 36.0926 25.8413 36.1638C25.8767 36.2463 25.7919 36.2698 25.7349 36.2994C25.5784 36.3811 25.4273 36.4803 25.2623 36.5387C25.0564 36.6121 24.8999 36.7265 24.7688 36.8976C24.6979 36.9908 24.5761 37.0892 24.4651 36.9491C24.3617 36.8181 24.5028 36.7462 24.5884 36.6977C24.9215 36.5106 25.061 36.2736 24.9816 35.8707C24.886 35.386 25.2376 34.9869 25.3633 34.5424C25.3833 34.4704 25.465 34.3705 25.5599 34.3985C25.667 34.4303 25.6277 34.5507 25.6223 34.6287C25.5861 35.1558 25.6177 35.6943 25.3047 36.1683Z" fill="#BDE0EA"/>
<path d="M28.5606 36.8726C28.7865 36.9801 28.862 37.1853 28.9931 37.3406C29.0494 37.4072 29.0355 37.4814 28.9499 37.5322C28.8813 37.5731 28.8042 37.6117 28.7317 37.5708C28.6323 37.5155 28.6908 37.4428 28.7348 37.38C28.8975 37.152 28.5451 37.0816 28.5606 36.8726Z" fill="#BDE0EA"/>
<path d="M29.4988 37.1952C29.6337 37.2724 29.7647 37.3489 29.6992 37.4943C29.6784 37.5413 29.5134 37.5829 29.4656 37.5511C29.2883 37.433 29.5265 37.3232 29.4988 37.1952Z" fill="#BDE0EA"/>
<path d="M54.9333 37.9056C54.8639 38.5486 54.4345 39.1014 53.9588 39.63C53.8739 39.7247 53.7891 39.6966 53.6966 39.63C53.1577 39.2438 52.618 38.8591 52.0752 38.4789C51.9442 38.3873 51.9318 38.2918 51.9765 38.1434C52.1169 37.6754 52.3327 37.249 52.6643 36.8855C53.0405 36.472 53.4491 36.3812 53.9564 36.5811C54.6064 36.8378 54.9502 37.2687 54.9333 37.9056Z" fill="#002F0B"/>
<path d="M10.1607 43.1023C10.3041 43.1106 10.4483 43.1614 10.5879 43.2333C11.0528 43.4726 11.4483 43.8089 11.8739 44.1042C11.9895 44.1845 12.0173 44.2595 11.9217 44.3693C11.7706 44.5435 11.6194 44.7176 11.473 44.8956C11.3827 45.0054 11.2717 45.0198 11.1445 44.9834C10.5084 44.8025 10.0088 44.4427 9.68888 43.8702C9.49459 43.5234 9.75365 43.1076 10.1607 43.1023Z" fill="#002F0B"/>
<path d="M48.0311 45.8528C47.6865 45.8604 47.4005 45.5007 47.4768 45.194C47.5285 44.9865 47.6503 44.8161 47.7944 44.6631C48.0959 44.3428 48.4097 44.0338 48.7096 43.7119C48.8283 43.5839 48.9093 43.6127 49.0018 43.7301C49.0558 43.799 49.1175 43.8626 49.1768 43.9278C49.6171 44.4162 49.6217 44.4973 49.2023 45.0296C48.89 45.4265 48.5068 45.7294 48.0311 45.8528Z" fill="#002F0B"/>
<path d="M40.2188 47.8066C40.2234 47.1326 40.9204 46.554 41.7161 46.5623C42.3884 46.5692 43.1177 47.4469 43.1108 48.2405C43.1054 48.8668 42.3066 49.4992 41.5202 49.4984C40.8379 49.4977 40.2126 48.6843 40.2188 47.8066Z" fill="#002F0B"/>
<path d="M24.3511 51.3554C23.9232 51.332 23.5647 51.2653 23.237 51.0828C23.025 50.9647 22.8993 50.7988 22.9441 50.5459C22.9865 50.3081 23.1214 50.1438 23.3635 50.0877C23.9656 49.9476 24.5601 50.1066 25.1583 50.1437C25.2686 50.1506 25.2994 50.2407 25.2832 50.3384C25.2432 50.5762 25.2007 50.8132 25.1576 51.0502C25.1314 51.1949 25.0057 51.2381 24.8893 51.2653C24.695 51.31 24.4945 51.3327 24.3511 51.3554Z" fill="#002F0B"/>
<path d="M23.526 30.7134C23.4204 31.0065 23.4181 31.3465 23.2415 31.6328C23.2038 31.6949 23.159 31.7774 23.0634 31.7494C22.9779 31.7244 22.9539 31.6426 22.9509 31.5661C22.9339 31.1935 23.0488 30.8573 23.2631 30.5536C23.3017 30.4991 23.3579 30.4491 23.4304 30.4779C23.5314 30.5173 23.5345 30.6081 23.526 30.7134Z" fill="#8EC641"/>
<path d="M24.9949 30.3968C24.88 30.3748 24.8977 30.3097 24.9209 30.2446C25.0704 29.819 25.2562 29.4108 25.5138 29.0367C25.5592 28.9708 25.6155 28.9125 25.7057 28.9511C25.7666 28.9776 25.7705 29.0397 25.7504 29.0919C25.5901 29.5229 25.4405 29.9591 25.1182 30.3082C25.0835 30.3476 25.0319 30.3718 24.9949 30.3968Z" fill="#8EC641"/>
<path d="M26.2362 30.3893C26.1221 30.381 26.1275 30.3158 26.1491 30.2484C26.2933 29.8107 26.4814 29.3927 26.7535 29.0163C26.7936 28.9603 26.8522 28.9239 26.9255 28.9444C26.9949 28.964 26.9972 29.0269 26.9802 29.0776C26.8299 29.5237 26.6672 29.9637 26.3318 30.3166C26.3017 30.3469 26.2632 30.3689 26.2362 30.3893Z" fill="#8EC641"/>
<path d="M18.8779 31.426C18.9196 31.1224 18.9943 30.8156 19.2071 30.5604C19.2557 30.5029 19.3143 30.44 19.4045 30.4718C19.4824 30.4991 19.4616 30.5786 19.4839 30.6377C19.6173 30.9876 19.5456 31.3011 19.3135 31.5828C19.2326 31.6805 19.1509 31.8244 18.992 31.7592C18.8579 31.7047 18.8856 31.5593 18.8779 31.426Z" fill="#8EC641"/>
<path d="M18.8306 29.1405C18.7627 29.604 18.5846 30.0379 18.2161 30.384C18.1567 30.4401 18.0812 30.487 18.0087 30.4386C17.9239 30.3818 17.9863 30.2992 18.0141 30.2326C18.1899 29.8221 18.3695 29.4132 18.5461 29.0035C18.5792 28.9262 18.6255 28.8671 18.7203 28.9012C18.8221 28.9376 18.829 29.0277 18.8306 29.1405Z" fill="#8EC641"/>
</svg>
