<svg width="33" height="33" viewBox="0 0 33 33" fill="none" xmlns="http://www.w3.org/2000/svg">
<g clip-path="url(#clip0_1_407)">
<path d="M33 16.601C33 7.43117 25.6121 -0.0020752 16.5 -0.0020752C7.38373 -1.26953e-05 -0.00415039 7.43118 -0.00415039 16.6031C-0.00415039 24.8882 6.03073 31.7563 13.9177 33.002V21.4005H9.73085V16.6031H13.9218V12.9422C13.9218 8.78211 16.3865 6.48449 20.1547 6.48449C21.9615 6.48449 23.8487 6.8083 23.8487 6.8083V10.892H21.7676C19.7195 10.892 19.0802 12.1729 19.0802 13.4867V16.601H23.6548L22.9247 21.3984H19.0781V33C26.9651 31.7542 33 24.8861 33 16.601Z" fill="#E6C120"/>
</g>
<defs>
<clipPath id="clip0_1_407">
<rect width="33" height="33" fill="white"/>
</clipPath>
</defs>
</svg>
