<svg width="33" height="33" viewBox="0 0 33 33" fill="none" xmlns="http://www.w3.org/2000/svg">
<path d="M18.1962 0.00203008C19.4002 -0.00259013 20.6042 0.00951075 21.8079 0.038329L22.128 0.0498785C22.4975 0.0630781 22.8622 0.0795775 23.3027 0.0993768C25.0582 0.181874 26.2561 0.459065 27.3071 0.866601C28.396 1.28569 29.3134 1.85327 30.2307 2.77064C31.0695 3.59496 31.7186 4.59209 32.1331 5.69269C32.5406 6.7437 32.8178 7.94321 32.9003 9.69875C32.9201 10.1376 32.9366 10.5039 32.9498 10.8735L32.9597 11.1936C32.989 12.3967 33.0016 13.6002 32.9976 14.8037L32.9993 16.0345V18.196C33.0033 19.4 32.9907 20.604 32.9613 21.8077L32.9514 22.1278C32.9382 22.4974 32.9217 22.862 32.9019 23.3025C32.8194 25.0581 32.5389 26.2559 32.1331 27.3069C31.72 28.4087 31.0707 29.4067 30.2307 30.2307C29.4057 31.0694 28.4081 31.7185 27.3071 32.133C26.2561 32.5406 25.0582 32.8178 23.3027 32.9003C22.8622 32.9201 22.4975 32.9366 22.128 32.9498L21.8079 32.9597C20.6042 32.989 19.4002 33.0016 18.1962 32.9976L16.9654 32.9993H14.8056C13.6016 33.0033 12.3976 32.9907 11.194 32.9613L10.8739 32.9514C10.4822 32.9372 10.0906 32.9207 9.69915 32.9019C7.94364 32.8194 6.74581 32.5389 5.69316 32.133C4.59214 31.7195 3.59486 31.0702 2.77116 30.2307C1.93143 29.4061 1.28166 28.4084 0.867158 27.3069C0.459629 26.2559 0.182443 25.0581 0.0999468 23.3025C0.0815716 22.911 0.0650723 22.5194 0.0504494 22.1278L0.0422 21.8077C0.0117815 20.604 -0.00196925 19.4 0.000952002 18.196V14.8037C-0.00365286 13.6002 0.00844781 12.3967 0.0372503 11.1936L0.0487996 10.8735C0.0619989 10.5039 0.078498 10.1376 0.098297 9.69875C0.180793 7.94156 0.457978 6.74535 0.865507 5.69269C1.28025 4.59155 1.93129 3.59469 2.77281 2.77229C3.59594 1.93206 4.5926 1.28168 5.69316 0.866601C6.74581 0.459065 7.94199 0.181874 9.69915 0.0993768L10.8739 0.0498785L11.194 0.041629C12.3971 0.0112252 13.6005 -0.00252582 14.804 0.000380259L18.1962 0.00203008ZM16.5001 8.25175C15.407 8.23629 14.3218 8.43823 13.3075 8.84584C12.2931 9.25345 11.3699 9.85859 10.5915 10.6261C9.81307 11.3936 9.19494 12.3082 8.77304 13.3167C8.35113 14.3252 8.13387 15.4075 8.13387 16.5006C8.13387 17.5938 8.35113 18.6761 8.77304 19.6846C9.19494 20.6931 9.81307 21.6077 10.5915 22.3752C11.3699 23.1427 12.2931 23.7478 13.3075 24.1554C14.3218 24.5631 15.407 24.765 16.5001 24.7495C18.688 24.7495 20.7863 23.8804 22.3334 22.3333C23.8805 20.7861 24.7497 18.6878 24.7497 16.4998C24.7497 14.3119 23.8805 12.2135 22.3334 10.6664C20.7863 9.11926 18.688 8.25175 16.5001 8.25175ZM16.5001 11.5516C17.1576 11.5395 17.8109 11.6585 18.4219 11.9018C19.0329 12.145 19.5893 12.5075 20.0586 12.9682C20.5279 13.4289 20.9007 13.9784 21.1552 14.5848C21.4098 15.1912 21.5409 15.8422 21.541 16.4998C21.5411 17.1574 21.4102 17.8085 21.1559 18.4149C20.9016 19.0214 20.5289 19.5711 20.0598 20.0319C19.5906 20.4927 19.0344 20.8555 18.4235 21.0989C17.8125 21.3423 17.1593 21.4615 16.5018 21.4496C15.189 21.4496 13.93 20.9282 13.0018 19.9999C12.0735 19.0716 11.552 17.8126 11.552 16.4998C11.552 15.187 12.0735 13.928 13.0018 12.9998C13.93 12.0715 15.189 11.55 16.5018 11.55L16.5001 11.5516ZM25.1622 5.77683C24.6299 5.79814 24.1265 6.02457 23.7574 6.40871C23.3884 6.79286 23.1822 7.3049 23.1822 7.83761C23.1822 8.37032 23.3884 8.88237 23.7574 9.26651C24.1265 9.65065 24.6299 9.87709 25.1622 9.89839C25.7091 9.89839 26.2337 9.6811 26.6205 9.29432C27.0073 8.90754 27.2246 8.38295 27.2246 7.83596C27.2246 7.28897 27.0073 6.76439 26.6205 6.37761C26.2337 5.99083 25.7091 5.77353 25.1622 5.77353V5.77683Z" fill="#E6C120"/>
</svg>
